<svg version="1.1" xmlns="http://www.w3.org/2000/svg" xmlns:xlink="http://www.w3.org/1999/xlink" x="0px" y="0px" viewBox="0 0 512 512" style="enable-background:new 0 0 512 512;" xml:space="preserve">
<g id="_x31_38_x2C__Attachment_x2C__Attach_x2C__Clip_x2C__Add">
<g id="XMLID_5108_">
<g>
<path d="M162.244,450.816c-34.495,0-66.925-13.434-91.317-37.825c-24.392-24.392-37.825-56.822-37.825-91.317
				s13.433-66.926,37.824-91.317l160.47-160.47c3.904-3.905,10.237-3.905,14.142,0c3.905,3.905,3.905,10.237,0,14.143
				L85.069,244.499c-20.614,20.614-31.967,48.022-31.967,77.175s11.353,56.562,31.967,77.175
				c20.614,20.614,48.022,31.968,77.175,31.968s56.561-11.354,77.175-31.968l132.387-132.387c3.906-3.904,10.236-3.904,14.143,0
				c3.905,3.905,3.905,10.237,0,14.143L253.562,412.991C229.169,437.383,196.739,450.816,162.244,450.816z" id="id_101" style="fill: rgb(207, 207, 207);"></path>
</g>
<g>
<path d="M378.877,283.533c-2.56,0-5.118-0.977-7.071-2.929c-3.905-3.905-3.905-10.237,0-14.143l72.211-72.211
				c10.762-10.761,15.979-25.909,14.691-42.652c-1.332-17.322-9.399-34.195-22.715-47.511
				c-27.071-27.069-67.518-30.668-90.162-8.023c-3.906,3.906-10.236,3.905-14.143,0c-3.905-3.905-3.905-10.237,0-14.142
				c30.443-30.442,83.578-26.844,118.447,8.023c16.688,16.689,26.814,38.04,28.514,60.119c1.743,22.658-5.534,43.373-20.49,58.329
				l-72.211,72.211C383.995,282.557,381.437,283.533,378.877,283.533z" id="id_102" style="fill: rgb(212, 212, 212);"></path>
</g>
<g>
<path d="M162.244,371.388c-13.279,0-25.764-5.171-35.153-14.561c-9.39-9.391-14.561-21.875-14.561-35.153
				c0-13.279,5.171-25.764,14.561-35.153L331.688,81.922c3.906-3.904,10.236-3.904,14.143,0c3.905,3.905,3.905,10.237,0,14.143
				L141.233,300.663c-5.612,5.612-8.703,13.073-8.703,21.011c0,7.937,3.091,15.398,8.703,21.011s13.074,8.703,21.011,8.703
				s15.398-3.091,21.011-8.703l204.598-204.598c3.906-3.905,10.236-3.905,14.143,0c3.905,3.905,3.905,10.237,0,14.143
				L197.397,356.827C188.008,366.217,175.523,371.388,162.244,371.388z" id="id_103" style="fill: rgb(207, 207, 207);"></path>
</g>
</g>
</g>
<g id="Layer_1">
</g>
</svg>