<svg id="Layer_1" data-name="Layer 1" xmlns="http://www.w3.org/2000/svg" viewBox="0 0 100 100"><circle cx="50" cy="40.112" r="8.746" id="id_101" style="fill: rgb(224, 226, 227);"></circle><circle cx="75.581" cy="30.012" r="8.746" id="id_102" style="fill: rgb(237, 237, 237);"></circle><path d="M24.237,68.273a51.455,51.455,0,0,0,6.131-.349c.09-.244.2-.475.3-.714s.2-.492.309-.733c.2-.431.415-.849.64-1.264.107-.2.206-.4.319-.6.334-.57.691-1.125,1.076-1.659.019-.028.036-.058.055-.085.408-.56.846-1.095,1.306-1.612.146-.163.3-.314.455-.473.326-.344.657-.682,1.006-1,.193-.178.4-.346.6-.517.33-.281.665-.555,1.013-.816.221-.166.445-.326.672-.483.355-.245.719-.477,1.089-.7.234-.141.466-.282.7-.414.114-.063.22-.136.335-.2a17.922,17.922,0,0,0-33.73,7.65C8.157,65.364,13.637,68.273,24.237,68.273Z" id="id_103" style="fill: rgb(223, 226, 227);"></path><path d="M75.581,47.147a17.92,17.92,0,0,0-15.826,9.508c.068.036.131.078.2.114.166.09.327.189.491.283.359.207.712.423,1.058.651.175.116.348.233.519.354.34.24.671.491,1,.752.148.118.3.231.443.353.458.387.906.789,1.334,1.217.283.283.557.576.823.874.091.1.177.21.266.314.172.2.343.4.507.608.1.126.194.255.29.382.145.192.289.384.428.581.1.138.19.279.284.419.129.194.257.388.379.586q.135.218.264.439c.118.2.232.4.343.6.081.15.161.3.238.451.107.207.208.417.308.628.071.152.143.3.211.456.1.219.187.441.276.664.06.148.121.3.177.445.016.043.036.085.052.129l.219.025q1.19.128,2.436.2c.144.008.291.013.436.02.875.042,1.761.07,2.667.07.748,0,1.465-.018,2.164-.045.224-.009.438-.023.658-.034.469-.025.932-.052,1.379-.088.236-.018.467-.039.7-.06q.633-.06,1.233-.132c.209-.025.419-.049.622-.076.44-.06.864-.125,1.279-.193.137-.023.281-.043.415-.066q.809-.142,1.55-.3c.111-.024.213-.05.321-.075.38-.086.75-.174,1.1-.265.154-.04.3-.082.451-.123.293-.08.578-.161.851-.244.144-.043.287-.087.426-.132.271-.086.53-.173.78-.26.111-.039.227-.077.333-.116.32-.116.624-.232.908-.346l.068-.027c.308-.125.591-.248.857-.368l.218-.1c.181-.085.355-.168.515-.247.075-.038.147-.074.217-.111.142-.073.277-.144.4-.212.057-.031.117-.063.17-.093.128-.072.244-.14.348-.2l.09-.054.031-.019a17.918,17.918,0,0,0-17.9-17.133Z" id="id_104" style="fill: rgb(223, 226, 227);"></path><path d="M35.493,64.64a17.838,17.838,0,0,0-3.4,9.768c1.641,1.057,7.121,3.967,17.721,3.967S66.156,75.456,67.9,74.383a17.791,17.791,0,0,0-.806-4.591v0h0q-.16-.512-.351-1.012a17.909,17.909,0,0,0-1.986-3.772l-.014-.022a17.976,17.976,0,0,0-1.33-1.7q-.359-.4-.74-.787a17.809,17.809,0,0,0-5.518-3.766A17.925,17.925,0,0,0,35.493,64.64Z" id="id_105" style="fill: rgb(224, 226, 227);"></path><circle cx="24.419" cy="30.012" r="8.746" id="id_106" style="fill: rgb(235, 235, 235);"></circle></svg>